<?xml version="1.0" standalone="no"?>
<!DOCTYPE svg PUBLIC "-//W3C//DTD SVG 1.1//EN"
"http://www.w3.org/Graphics/SVG/1.1/DTD/svg11.dtd">

<svg width="274" height="136" view_box="0 0 274 136"
xmlns="http://www.w3.org/2000/svg"
xmlns:link="http://www.w3.org/1999/xlink">\n\n<desc>Généré par Mocodo 2.3.7 le Tue, 07 Sep 2021 01:57:01</desc>

<rect id="frame" x="0" y="0" width="274" height="136" fill="#f7f7f7" stroke="none" stroke-width="0"/>

<!-- Association has -->
<line x1="226" y1="68" x2="137" y2="68" stroke="#4393c3" stroke-width="2"/>
<text x="161" y="85.0" fill="#b2182b" font-family="Verdana" font-size="12">1,1</text>
<line x1="48" y1="68" x2="137" y2="68" stroke="#4393c3" stroke-width="2"/>
<text x="92" y="85.0" fill="#b2182b" font-family="Verdana" font-size="12">0,N</text>
<g id="association-has">
	<path d="M 141 43 a 14 14 90 0 1 14 14 V 68 h -36 V 57 a 14 14 90 0 1 14 -14" fill="#92c5de" stroke="#92c5de" stroke-width="0"/>
	<path d="M 155 68.0 v 11 a 14 14 90 0 1 -14 14 H 133 a 14 14 90 0 1 -14 -14 V 68.0 H 36" fill="#d1e5f0" stroke="#d1e5f0" stroke-width="0"/>
	<rect x="119" y="43" width="36" height="50" fill="none" rx="14" stroke="#4393c3" stroke-width="2"/>
	<line x1="119" y1="68" x2="155" y2="68" stroke="#4393c3" stroke-width="1"/>
	<text x="126" y="60.7" fill="#000000" font-family="Verdana" font-size="12">has</text>
</g>

<!-- Entity CATEGORY -->
<g id="entity-CATEGORY">
	<g id="frame-CATEGORY">
		<rect x="9" y="34" width="78" height="25" fill="#f4a582" stroke="#f4a582" stroke-width="0"/>
		<rect x="9" y="59.0" width="78" height="43" fill="#fddbc7" stroke="#fddbc7" stroke-width="0"/>
		<rect x="9" y="34" width="78" height="68" fill="none" stroke="#d6604d" stroke-width="2"/>
		<line x1="9" y1="59" x2="87" y2="59" stroke="#d6604d" stroke-width="1"/>
	</g>
	<text x="14" y="51.7" fill="#000000" font-family="Verdana" font-size="12">CATEGORY</text>
	<text x="14" y="76.8" fill="#000000" font-family="Verdana" font-size="12">name</text>
	<line x1="14" y1="79" x2="49" y2="79" stroke="#000000" stroke-width="1"/>
	<text x="14" y="93.8" fill="#000000" font-family="Verdana" font-size="12">image</text>
</g>

<!-- Entity PRODUCT -->
<g id="entity-PRODUCT">
	<g id="frame-PRODUCT">
		<rect x="187" y="9" width="78" height="25" fill="#f4a582" stroke="#f4a582" stroke-width="0"/>
		<rect x="187" y="34.0" width="78" height="93" fill="#fddbc7" stroke="#fddbc7" stroke-width="0"/>
		<rect x="187" y="9" width="78" height="118" fill="none" stroke="#d6604d" stroke-width="2"/>
		<line x1="187" y1="34" x2="265" y2="34" stroke="#d6604d" stroke-width="1"/>
	</g>
	<text x="196" y="26.7" fill="#000000" font-family="Verdana" font-size="12">PRODUCT</text>
	<text x="192" y="51.7" fill="#000000" font-family="Verdana" font-size="12">name</text>
	<line x1="192" y1="54" x2="227" y2="54" stroke="#000000" stroke-width="1"/>
	<text x="192" y="68.8" fill="#000000" font-family="Verdana" font-size="12">description</text>
	<text x="192" y="85.8" fill="#000000" font-family="Verdana" font-size="12">image</text>
	<text x="192" y="102.8" fill="#000000" font-family="Verdana" font-size="12">status</text>
	<text x="192" y="119.8" fill="#000000" font-family="Verdana" font-size="12">price</text>
</g>
</svg>